<svg width="108" height="25" viewBox="0 0 108 25" fill="none" xmlns="http://www.w3.org/2000/svg">
<path d="M4.2 13.419H6.81C9.53 13.419 10.89 12.639 10.89 11.079V6.30904C10.89 4.74904 9.52 3.96904 6.78 3.96904C4.06 3.96904 2.7 4.74904 2.7 6.30904V23.979C2.7 24.439 2.3 24.669 1.5 24.669C0.7 24.669 0.3 24.439 0.3 23.979V6.60904C0.3 4.94904 0.89 3.74904 2.07 3.00904C3.25 2.24904 4.82 1.86904 6.78 1.86904C8.74 1.86904 10.31 2.24904 11.49 3.00904C12.69 3.74904 13.29 4.94904 13.29 6.60904V10.779C13.29 12.639 12.42 13.799 10.68 14.259C11.14 14.679 11.5 15.359 11.76 16.299C13.18 21.399 13.89 24.009 13.89 24.129C13.89 24.489 13.54 24.669 12.84 24.669C12.14 24.669 11.72 24.439 11.58 23.979L9.69 17.139C9.51 16.439 9.26 15.999 8.94 15.819C8.62 15.619 7.92 15.519 6.84 15.519H4.2C3.8 15.519 3.6 15.169 3.6 14.469C3.6 13.769 3.8 13.419 4.2 13.419ZM18.4066 13.749H28.1566C28.5566 13.749 28.7566 14.099 28.7566 14.799C28.7566 15.499 28.5566 15.849 28.1566 15.849H18.4066C18.0066 15.849 17.8066 15.499 17.8066 14.799C17.8066 14.099 18.0066 13.749 18.4066 13.749ZM38.292 22.419H43.152C43.552 22.419 43.752 22.769 43.752 23.469C43.752 24.169 43.552 24.519 43.152 24.519H38.292C36.572 24.519 35.352 24.109 34.632 23.289C33.912 22.449 33.552 21.099 33.552 19.239V2.85904C33.552 2.39904 33.952 2.16904 34.752 2.16904C35.552 2.16904 35.952 2.39904 35.952 2.85904V19.239C35.952 20.399 36.122 21.219 36.462 21.699C36.822 22.179 37.432 22.419 38.292 22.419ZM60.1908 10.749V11.649C60.1908 13.349 59.8408 14.519 59.1408 15.159C58.4408 15.799 57.1608 16.209 55.3008 16.389L49.4508 16.959V20.529C49.4508 22.089 50.7508 22.869 53.3508 22.869C56.3108 22.869 57.7908 22.189 57.7908 20.829V19.689C57.7908 19.229 58.1908 18.999 58.9908 18.999C59.7908 18.999 60.1908 19.229 60.1908 19.689V20.529C60.1908 23.489 57.9908 24.969 53.5908 24.969C51.6508 24.969 50.0708 24.589 48.8508 23.829C47.6508 23.069 47.0508 21.869 47.0508 20.229V10.809C47.0508 9.14904 47.6908 7.94904 48.9708 7.20904C50.2508 6.44904 51.9208 6.06904 53.9808 6.06904C56.0408 6.06904 57.5908 6.42904 58.6308 7.14904C59.6708 7.86904 60.1908 9.06904 60.1908 10.749ZM49.4508 10.509V14.859L55.0908 14.289C56.2308 14.169 56.9608 13.929 57.2808 13.569C57.6208 13.209 57.7908 12.569 57.7908 11.649V10.509C57.7908 8.94904 56.4008 8.16904 53.6208 8.16904C50.8408 8.16904 49.4508 8.94904 49.4508 10.509ZM75.6916 24.009C75.0316 24.649 73.9116 24.969 72.3316 24.969C70.7516 24.969 69.6316 24.649 68.9716 24.009C68.3116 23.369 67.8616 22.319 67.6216 20.859L65.4016 7.59904C65.3416 7.17904 65.3116 6.94904 65.3116 6.90904C65.3116 6.54904 65.6916 6.36904 66.4516 6.36904C67.2116 6.36904 67.6316 6.59904 67.7116 7.05904L69.9616 20.529C70.1016 21.389 70.3216 21.999 70.6216 22.359C70.9416 22.699 71.5116 22.869 72.3316 22.869C73.1516 22.869 73.7116 22.699 74.0116 22.359C74.3316 21.999 74.5616 21.389 74.7016 20.529L76.9516 7.05904C77.0316 6.59904 77.4516 6.36904 78.2116 6.36904C78.9716 6.36904 79.3516 6.54904 79.3516 6.90904C79.3516 6.94904 79.3216 7.17904 79.2616 7.59904L77.0416 20.859C76.8016 22.319 76.3516 23.369 75.6916 24.009ZM97.6322 10.749V11.649C97.6322 13.349 97.2822 14.519 96.5822 15.159C95.8822 15.799 94.6022 16.209 92.7422 16.389L86.8922 16.959V20.529C86.8922 22.089 88.1922 22.869 90.7922 22.869C93.7522 22.869 95.2322 22.189 95.2322 20.829V19.689C95.2322 19.229 95.6322 18.999 96.4322 18.999C97.2322 18.999 97.6322 19.229 97.6322 19.689V20.529C97.6322 23.489 95.4322 24.969 91.0322 24.969C89.0922 24.969 87.5122 24.589 86.2922 23.829C85.0922 23.069 84.4922 21.869 84.4922 20.229V10.809C84.4922 9.14904 85.1322 7.94904 86.4122 7.20904C87.6922 6.44904 89.3622 6.06904 91.4222 6.06904C93.4822 6.06904 95.0322 6.42904 96.0722 7.14904C97.1122 7.86904 97.6322 9.06904 97.6322 10.749ZM86.8922 10.509V14.859L92.5322 14.289C93.6722 14.169 94.4022 13.929 94.7222 13.569C95.0622 13.209 95.2322 12.569 95.2322 11.649V10.509C95.2322 8.94904 93.8422 8.16904 91.0622 8.16904C88.2822 8.16904 86.8922 8.94904 86.8922 10.509ZM106.323 1.20904V21.009C106.323 21.649 106.473 22.249 106.773 22.809C107.073 23.349 107.223 23.629 107.223 23.649C107.223 23.889 107.033 24.149 106.653 24.429C106.273 24.689 105.953 24.819 105.693 24.819C105.273 24.819 104.873 24.459 104.493 23.739C104.113 22.999 103.923 22.189 103.923 21.309V1.20904C103.923 0.749043 104.323 0.519043 105.123 0.519043C105.923 0.519043 106.323 0.749043 106.323 1.20904Z" fill="#FAFAFA"/>
</svg>
