<svg width="108" height="25" viewBox="0 0 108 25" fill="none" xmlns="http://www.w3.org/2000/svg">
<path d="M4.2 12.9H6.81C9.53 12.9 10.89 12.12 10.89 10.56V5.79C10.89 4.23 9.52 3.45 6.78 3.45C4.06 3.45 2.7 4.23 2.7 5.79V23.46C2.7 23.92 2.3 24.15 1.5 24.15C0.7 24.15 0.3 23.92 0.3 23.46V6.09C0.3 4.43 0.89 3.23 2.07 2.49C3.25 1.73 4.82 1.35 6.78 1.35C8.74 1.35 10.31 1.73 11.49 2.49C12.69 3.23 13.29 4.43 13.29 6.09V10.26C13.29 12.12 12.42 13.28 10.68 13.74C11.14 14.16 11.5 14.84 11.76 15.78C13.18 20.88 13.89 23.49 13.89 23.61C13.89 23.97 13.54 24.15 12.84 24.15C12.14 24.15 11.72 23.92 11.58 23.46L9.69 16.62C9.51 15.92 9.26 15.48 8.94 15.3C8.62 15.1 7.92 15 6.84 15H4.2C3.8 15 3.6 14.65 3.6 13.95C3.6 13.25 3.8 12.9 4.2 12.9ZM18.4066 13.23H28.1566C28.5566 13.23 28.7566 13.58 28.7566 14.28C28.7566 14.98 28.5566 15.33 28.1566 15.33H18.4066C18.0066 15.33 17.8066 14.98 17.8066 14.28C17.8066 13.58 18.0066 13.23 18.4066 13.23ZM38.292 21.9H43.152C43.552 21.9 43.752 22.25 43.752 22.95C43.752 23.65 43.552 24 43.152 24H38.292C36.572 24 35.352 23.59 34.632 22.77C33.912 21.93 33.552 20.58 33.552 18.72V2.34C33.552 1.88 33.952 1.65 34.752 1.65C35.552 1.65 35.952 1.88 35.952 2.34V18.72C35.952 19.88 36.122 20.7 36.462 21.18C36.822 21.66 37.432 21.9 38.292 21.9ZM60.1908 10.23V11.13C60.1908 12.83 59.8408 14 59.1408 14.64C58.4408 15.28 57.1608 15.69 55.3008 15.87L49.4508 16.44V20.01C49.4508 21.57 50.7508 22.35 53.3508 22.35C56.3108 22.35 57.7908 21.67 57.7908 20.31V19.17C57.7908 18.71 58.1908 18.48 58.9908 18.48C59.7908 18.48 60.1908 18.71 60.1908 19.17V20.01C60.1908 22.97 57.9908 24.45 53.5908 24.45C51.6508 24.45 50.0708 24.07 48.8508 23.31C47.6508 22.55 47.0508 21.35 47.0508 19.71V10.29C47.0508 8.63 47.6908 7.43 48.9708 6.69C50.2508 5.93 51.9208 5.55 53.9808 5.55C56.0408 5.55 57.5908 5.91 58.6308 6.63C59.6708 7.35 60.1908 8.55 60.1908 10.23ZM49.4508 9.99V14.34L55.0908 13.77C56.2308 13.65 56.9608 13.41 57.2808 13.05C57.6208 12.69 57.7908 12.05 57.7908 11.13V9.99C57.7908 8.43 56.4008 7.65 53.6208 7.65C50.8408 7.65 49.4508 8.43 49.4508 9.99ZM75.6916 23.49C75.0316 24.13 73.9116 24.45 72.3316 24.45C70.7516 24.45 69.6316 24.13 68.9716 23.49C68.3116 22.85 67.8616 21.8 67.6216 20.34L65.4016 7.08C65.3416 6.66 65.3116 6.43 65.3116 6.39C65.3116 6.03 65.6916 5.85 66.4516 5.85C67.2116 5.85 67.6316 6.08 67.7116 6.54L69.9616 20.01C70.1016 20.87 70.3216 21.48 70.6216 21.84C70.9416 22.18 71.5116 22.35 72.3316 22.35C73.1516 22.35 73.7116 22.18 74.0116 21.84C74.3316 21.48 74.5616 20.87 74.7016 20.01L76.9516 6.54C77.0316 6.08 77.4516 5.85 78.2116 5.85C78.9716 5.85 79.3516 6.03 79.3516 6.39C79.3516 6.43 79.3216 6.66 79.2616 7.08L77.0416 20.34C76.8016 21.8 76.3516 22.85 75.6916 23.49ZM97.6322 10.23V11.13C97.6322 12.83 97.2822 14 96.5822 14.64C95.8822 15.28 94.6022 15.69 92.7422 15.87L86.8922 16.44V20.01C86.8922 21.57 88.1922 22.35 90.7922 22.35C93.7522 22.35 95.2322 21.67 95.2322 20.31V19.17C95.2322 18.71 95.6322 18.48 96.4322 18.48C97.2322 18.48 97.6322 18.71 97.6322 19.17V20.01C97.6322 22.97 95.4322 24.45 91.0322 24.45C89.0922 24.45 87.5122 24.07 86.2922 23.31C85.0922 22.55 84.4922 21.35 84.4922 19.71V10.29C84.4922 8.63 85.1322 7.43 86.4122 6.69C87.6922 5.93 89.3622 5.55 91.4222 5.55C93.4822 5.55 95.0322 5.91 96.0722 6.63C97.1122 7.35 97.6322 8.55 97.6322 10.23ZM86.8922 9.99V14.34L92.5322 13.77C93.6722 13.65 94.4022 13.41 94.7222 13.05C95.0622 12.69 95.2322 12.05 95.2322 11.13V9.99C95.2322 8.43 93.8422 7.65 91.0622 7.65C88.2822 7.65 86.8922 8.43 86.8922 9.99ZM106.323 0.69V20.49C106.323 21.13 106.473 21.73 106.773 22.29C107.073 22.83 107.223 23.11 107.223 23.13C107.223 23.37 107.033 23.63 106.653 23.91C106.273 24.17 105.953 24.3 105.693 24.3C105.273 24.3 104.873 23.94 104.493 23.22C104.113 22.48 103.923 21.67 103.923 20.79V0.69C103.923 0.23 104.323 -3.57628e-07 105.123 -3.57628e-07C105.923 -3.57628e-07 106.323 0.23 106.323 0.69Z" fill="black"/>
</svg>
